<svg width="48" height="48" viewBox="0 0 48 48" fill="none" xmlns="http://www.w3.org/2000/svg">
<path d="M22 6.11008V14.2001C23.3198 13.9318 24.6802 13.9318 26 14.2001V6.11008C24.6707 5.96321 23.3293 5.96321 22 6.11008ZM28 6.44608V14.8321C30.3111 15.8438 32.1563 17.689 33.168 20.0001H41.554C40.7979 16.6949 39.1251 13.6699 36.7276 11.2724C34.3302 8.87494 31.3052 7.20214 28 6.44608ZM41.89 22.0001H33.8C34.0683 23.3199 34.0683 24.6802 33.8 26.0001H41.89C42.0371 24.6708 42.0371 23.3294 41.89 22.0001ZM41.554 28.0001H33.168C32.1563 30.3112 30.3111 32.1564 28 33.1681V41.5541C31.3052 40.798 34.3302 39.1252 36.7276 36.7277C39.1251 34.3302 40.7979 31.3053 41.554 28.0001ZM26 41.8901V33.8001C24.6802 34.0684 23.3198 34.0684 22 33.8001V41.8901C23.3293 42.0372 24.6707 42.0372 26 41.8901ZM20 41.5541V33.1681C17.6889 32.1564 15.8437 30.3112 14.832 28.0001H6.44599C7.20205 31.3053 8.87485 34.3302 11.2723 36.7277C13.6698 39.1252 16.6948 40.798 20 41.5541ZM6.10999 26.0001H14.2C13.9318 24.6802 13.9318 23.3199 14.2 22.0001H6.10999C5.96313 23.3294 5.96313 24.6708 6.10999 26.0001ZM6.44599 20.0001H14.832C15.8437 17.689 17.6889 15.8438 20 14.8321V6.44608C16.6948 7.20214 13.6698 8.87494 11.2723 11.2724C8.87485 13.6699 7.20205 16.6949 6.44599 20.0001ZM20.844 4.24808C22.9349 3.91633 25.0651 3.91633 27.156 4.24808C32.3932 5.08795 37.0827 7.97239 40.1946 12.2677C43.3064 16.563 44.5859 21.918 43.752 27.1561C42.9121 32.3932 40.0277 37.0828 35.7324 40.1946C31.437 43.3065 26.0821 44.586 20.844 43.7521C15.6068 42.9122 10.9172 40.0278 7.80543 35.7324C4.69362 31.4371 3.41411 26.0822 4.24799 20.8441C4.91466 16.6828 6.87793 12.8381 9.85796 9.85805C12.838 6.87802 16.6827 4.91475 20.844 4.24808ZM24 16.0001C22.9489 15.9982 21.9078 16.2039 20.9363 16.6053C19.9649 17.0067 19.0823 17.5959 18.339 18.3391C17.5958 19.0824 17.0066 19.965 16.6052 20.9364C16.2038 21.9079 15.9981 22.949 16 24.0001C15.9981 25.0512 16.2038 26.0923 16.6052 27.0637C17.0066 28.0352 17.5958 28.9178 18.339 29.661C19.0823 30.4043 19.9649 30.9935 20.9363 31.3949C21.9078 31.7963 22.9489 32.0019 24 32.0001C25.6556 32.0031 27.2712 31.4914 28.6231 30.5357C29.9751 29.5801 30.9965 28.2278 31.546 26.6661C31.84 25.8341 32 24.9361 32 24.0001C32.003 22.3445 31.4913 20.7289 30.5357 19.377C29.58 18.025 28.2277 17.0036 26.666 16.4541C25.8096 16.1523 24.908 15.9988 24 16.0001Z" fill="black"/>
</svg>
