<svg width="48" height="48" viewBox="0 0 48 48" fill="none" xmlns="http://www.w3.org/2000/svg">
<path d="M24 6.00001C20.1032 5.99881 16.3113 7.26223 13.1939 9.60042C10.0766 11.9386 7.8022 15.2253 6.71253 18.9666C5.62287 22.708 5.77676 26.7019 7.1511 30.3483C8.52543 33.9947 11.046 37.0966 14.334 39.188L16.416 31.902C16.6547 31.0657 17.1595 30.33 17.8539 29.8064C18.5482 29.2827 19.3943 28.9997 20.264 29H27.736C28.6054 28.9995 29.4513 29.2823 30.1457 29.8056C30.84 30.3289 31.3449 31.0641 31.584 31.9L33.664 39.188C36.2199 37.563 38.324 35.3189 39.7812 32.6639C41.2385 30.0088 42.0017 27.0287 42 24C42.002 22.0684 41.6927 20.1492 41.084 18.316L42.982 17.684C43.642 19.67 44 21.794 44 24C44 35.046 35.046 44 24 44C12.954 44 4 35.046 4 24C4 12.954 12.954 4.00001 24 4.00001C26.1463 3.99789 28.279 4.34163 30.316 5.01801L29.684 6.91601C27.8508 6.30735 25.9316 5.99805 24 6.00001ZM31.872 40.192L29.66 32.452C29.5408 32.0337 29.2885 31.6656 28.9413 31.4036C28.5941 31.1416 28.171 30.9999 27.736 31H20.264C19.8293 30.9998 19.4063 31.1412 19.0592 31.4028C18.712 31.6644 18.4595 32.0321 18.34 32.45L16.128 40.192C18.5803 41.3856 21.2726 42.004 24 42C26.7274 42.004 29.4197 41.3856 31.872 40.192ZM36 10V4.00001H38V10H44V12H38V18H36V12H30V10H36ZM19 16C19 15.4696 19.2107 14.9609 19.5858 14.5858C19.9609 14.2107 20.4696 14 21 14H27C27.5304 14 28.0391 14.2107 28.4142 14.5858C28.7893 14.9609 29 15.4696 29 16V23C29 23.5304 28.7893 24.0391 28.4142 24.4142C28.0391 24.7893 27.5304 25 27 25H21C20.4696 25 19.9609 24.7893 19.5858 24.4142C19.2107 24.0391 19 23.5304 19 23V16ZM21 16V23H27V16H21Z" fill="black"/>
</svg>
