<?xml version="1.0" encoding="UTF-8"?>
<svg id="Ebene_1" data-name="Ebene 1" xmlns="http://www.w3.org/2000/svg" viewBox="0 0 348.03 163.28">
  <defs>
    <style>
      .cls-1 {
        fill: #e5e3db;
      }

      .cls-2, .cls-3 {
        fill: #918f82;
      }

      .cls-4 {
        fill: #e0280f;
      }

      .cls-3 {
        fill-rule: evenodd;
      }
    </style>
  </defs>
  <path class="cls-1" d="m231.67,61.89c-17.03,8.64-29.85-18.77-50.31-9.77,6.78,10.81,12.56,24.56,13.89,40.13,30.87-27.41,44.83,1.15,58.9-4.15-8.99-6.93-17.29-15.36-22.48-26.21Z"/>
  <path class="cls-2" d="m242.55,66.12c0-3.91,3.83-6.74,9-5.94,1.45.23,3.1.93,3.58,1.15.26.13.46.39.35.66-.27.71-.43,1.07-.72,1.75-.08.2-.47.2-.56,0-.78-1.65-2.74-2.67-4.86-2.49-1.09.09-1.95.45-2.63.98-.71.56-1.06,1.34-1.06,2.34,0,.9.27,1.67.82,2.3.55.65,1.39,1.32,2.54,2.03l3.07,1.89c1.92,1.18,3.27,2.27,4.06,3.26.71.91,1.09,1.98,1.15,3.2v.37c0,1.83-.69,3.35-2.07,4.57-1.37,1.22-3.13,1.84-5.27,1.84-.27,0-.53,0-.78-.02-.05,0-.08,0-.12-.01-.54-.47-1.21-1.08-1.61-1.46.05.01.08.02.13.04.5.11,1.07.16,1.72.16,1.11,0,2.44-.35,3.25-1.05.82-.7,1.22-1.68,1.22-2.94,0-.53-.09-1.02-.26-1.48-.21-.55-.53-1.05-.97-1.51-.53-.53-1.66-1.34-3.38-2.4l-2.98-1.86c-.9-.57-1.61-1.14-2.15-1.72-.99-1.1-1.48-2.11-1.48-3.65h0Z"/>
  <path class="cls-2" d="m135.48,76.45c0,2.06.19,2.71.61,3.57.78,1.55,2.19,2.33,4.36,2.33,1.9,0,3.73-.82,4.56-2.41.6-1.15.74-2.48.74-4.1,0-4.38,0-11.29,0-11.29,0-.32.26-.58.58-.58h.3c.32,0,.58.26.58.58l-.02,11.29c0,2.01-.31,3.58-.92,4.7-1.14,2.07-3.3,3.11-6.48,3.11s-5.29-1.02-6.42-3.07c-.62-1.1-.92-2.55-.92-4.35v-11.34c0-.51.41-.93.93-.93h1.18c.51,0,.93.42.93.93v11.55h0Z"/>
  <path class="cls-3" d="m120.83,72.41s-1.13.02-1.58.02c-.33,0-.51.11-.28.44.09.13.16.24.31.42.17.21.38.34.59.35,1.49.07,2.99.29,4.13.86,1.19.61,1.79,1.74,1.79,3.4,0,1.67-.51,2.79-1.53,3.38-1.02.59-2.29.88-3.8.88l-2.44-.04v-9.9s0-7.14,0-7.14h1.36c1.39,0,2.84.16,3.64.5,1.44.62,2.17,1.49,2.17,3.25,0,1.49-.63,2.53-1.88,3.11-.65.3-1.48.46-2.47.48h0Zm-.38-8.44c2.37,0,4.25.38,5.64,1.14,1.4.76,2.09,1.75,2.1,3.61,0,1.4-.49,2.46-1.46,3.18-.55.42-1.37.76-2.47,1.03,1.36.33,2.52.88,3.48,1.65.96.76,1.44,1.83,1.45,3.21,0,2.31-1.07,3.9-3.21,4.77-1.13.45-2.51.68-4.16.68h-5.89c-.51,0-.93-.42-.93-.93v-17.4c0-.51.42-.93.93-.93h4.53Z"/>
  <path class="cls-2" d="m162.3,82.82c-1.8-2.28-4.18-5.48-6.71-8.86-.35-.47-.04-.78.23-.78.98,0,2.14-.3,2.77-.55,1.54-.63,2.32-1.83,2.32-3.58,0-1.69-.69-2.84-2.08-3.45-.58-.26-1.09-.42-2.89-.47-.5-.02-1.11-.02-1.84-.02v17.2c0,.51-.42.93-.93.93h-1.18c-.51,0-.93-.42-.93-.93v-17.4c0-.51.42-.93.93-.93l4.71.02c1.68,0,3.07.21,4.19.64,2.12.81,3.18,2.29,3.18,4.45,0,1.45-.47,2.56-1.42,3.34-.94.78-2.22,1.29-3.84,1.53,0,0,3.5,4.42,6.65,8.3.45.55-.03.99-.59.99h-1.59c-.42,0-.73-.09-.99-.42h0Z"/>
  <path class="cls-2" d="m184.08,64.93c.26.13.46.39.35.66-.27.71-.43,1.07-.72,1.75-.09.2-.41.16-.56,0-.23-.25-.39-.42-.67-.66-1.61-1.39-3-1.99-5.12-1.87-1.97.11-3.27.79-4.6,2.12-1.41,1.41-2.12,3.74-2.12,6.99,0,2.68.71,4.77,2.12,6.28,1.41,1.51,3.15,2.26,5.23,2.26.35,0,.76-.03,1.24-.1.47-.07.92-.17,1.35-.31.69-.23.98-.35,1.55-.67v-7.54c0-.51.41-.93.93-.93h.98c.51,0,.93.42.93.93,0,0,0,4.29,0,7.16,0,.29-.1.49-.33.68-.68.56-1.02.7-2.19,1.13-1.65.61-3.27.85-4.82.85-2.84,0-5.24-.83-7.19-2.49-2.15-1.83-3.23-4.28-3.23-7.36,0-2.71.79-5.09,2.57-6.96,5.19-5.48,13.01-2.54,14.31-1.91h0Z"/>
  <path class="cls-2" d="m93.27,67.28v15.37c0,.32-.27.58-.59.58h-.29c-.32,0-.58-.26-.58-.58v-17.74c0-.51.42-.93.93-.93h1.47c.52,0,.82.38,1.01.87l5.43,14.46,5.64-14.46c.19-.48.49-.87,1.01-.87h1.59c.51,0,.93.42.93.93v17.4c0,.51-.42.93-.93.93h-1.18c-.51,0-.93-.42-.93-.93v-15.37s-5.02,12.47-6.36,15.7c-.33.79-1.18.82-1.48,0l-5.69-15.34h0Z"/>
  <path class="cls-2" d="m64.85,61.83c0-.51.42-.93.93-.93h1.18c.51,0,.93.42.93.93v20.47c0,.51-.42.93-.93.93h-1.18c-.51,0-.93-.42-.93-.93v-9.17h-10.23v9.17c0,.51-.42.93-.93.93h-1.18c-.51,0-.93-.42-.93-.93v-20.47c0-.51.42-.93.93-.93h1.18c.51,0,.93.42.93.93v10.14h10.23v-10.14h0Z"/>
  <path class="cls-3" d="m82.33,75.76l-3.59-9.86-3.54,9.86h7.13Zm-7.59,1.18s-1.43,4.01-2.15,5.88c-.1.26-.3.42-.57.42h-.49c-.25,0-.44-.31-.35-.55,1.96-5.15,5.12-13.76,6.69-17.94.12-.33.27-.77,1.07-.77h1.43c.63,0,.93.4,1.08.8,1.97,5.28,4.31,11.47,6.63,17.54.1.27.1.92-.68.92h-1.47c-.8,0-.87-.35-1-.65-.8-1.91-2.19-5.64-2.19-5.64h-8Z"/>
  <path class="cls-3" d="m284.26,82.15c2.27,0,4.14-.45,5.61-1.35,2.25-1.38,3.38-3.75,3.38-7.09,0-2.98-.93-5.23-2.79-6.74-1.59-1.29-3.7-1.93-6.32-1.93l-1.68.03v17.06s1.79.02,1.79.02h0Zm.54-18.18c2.64,0,4.88.44,6.71,1.31,3.3,1.56,4.95,4.36,4.95,8.38,0,1.45-.3,2.83-.9,4.14-.59,1.31-1.48,2.41-2.67,3.31-.76.57-1.54,1-2.36,1.29-1.49.55-3.32.82-5.49.82h-4.6c-.51,0-.93-.42-.93-.93v-17.4c0-.51.42-.93.93-.93h4.36Z"/>
  <path class="cls-3" d="m264.67,61.49c0-.79.64-1.44,1.44-1.44s1.44.64,1.44,1.44-.64,1.44-1.44,1.44-1.44-.64-1.44-1.44h0Zm5.39,0c0-.79.64-1.44,1.44-1.44s1.44.64,1.44,1.44-.64,1.44-1.44,1.44-1.44-.64-1.44-1.44h0Zm-6.35,14.96c0,2.06.19,2.71.61,3.57.78,1.55,2.19,2.33,4.36,2.33,1.9,0,3.73-.82,4.56-2.41.6-1.15.74-2.48.74-4.1v-11.29c0-.32.26-.58.58-.58h.3c.32,0,.58.26.58.58l-.02,11.29c0,2.01-.31,3.58-.92,4.7-1.14,2.07-3.3,3.11-6.48,3.11s-5.29-1.02-6.42-3.07c-.62-1.1-.92-2.55-.92-4.35v-11.34c0-.51.42-.93.93-.93h1.18c.51,0,.93.42.93.93v11.55h0Z"/>
  <g>
    <path class="cls-2" d="m124.24,107.24h-4.07l-.84,3.33h-.78l2.39-9.22c.04-.16.15-.24.3-.24h1.95c.15,0,.26.08.3.24l2.41,9.22h-.8l-.85-3.33Zm-.18-.7l-1.2-4.73h-1.31l-1.2,4.73h3.72Z"/>
    <path class="cls-2" d="m131.21,101.1h.95l3.42,8.43,3.45-8.43h.92v9.47h-.73v-8.2l-3.19,7.8c-.07.18-.16.23-.28.23h-.34c-.12,0-.22-.05-.28-.23l-3.19-7.79v8.18h-.72v-9.47Z"/>
    <path class="cls-2" d="m147.2,105.33v5.23h-.55l-.15-.43c-.92.34-1.66.57-2.41.57-1.51,0-1.99-.54-1.99-1.87s.61-1.87,1.96-1.97l2.41-.18v-1.42c0-.74-.16-1.16-1.72-1.16-.89,0-1.77.11-2.22.19v-.69c.45-.08,1.34-.2,2.24-.2,1.88,0,2.42.49,2.42,1.93Zm-3.06,4.71c.65,0,1.41-.14,2.33-.32v-2.41l-2.41.18c-1.05.08-1.2.45-1.2,1.35,0,.97.28,1.2,1.28,1.2Z"/>
    <path class="cls-2" d="m154.54,107.24h-4.71c.05,1.87.35,2.76,2.18,2.76,1.01,0,1.87-.18,2.23-.31v.69c-.39.15-1.26.32-2.19.32-2.57,0-2.95-1.43-2.95-3.85,0-2.95,1.1-3.45,2.81-3.45,1.6,0,2.62.45,2.62,2.91v.93Zm-.73-1.2c0-1.51-.58-1.93-1.79-1.93-1.42,0-2.18.2-2.19,2.5h3.98v-.57Z"/>
    <path class="cls-2" d="m159.64,103.4v.85h-2.45v6.32h-.73v-7.03h.61l.09.32,2.47-.46Z"/>
    <path class="cls-2" d="m160.6,110.36v-.69c.38.09,1.16.32,2.08.32,1.31,0,1.72-.28,1.72-1.23s-.34-1.19-.93-1.34l-1.42-.37c-1.04-.27-1.43-.69-1.43-1.85,0-1.34.77-1.81,2.31-1.81.69,0,1.53.11,1.97.22v.69c-.57-.12-1.24-.2-1.97-.2-1.15,0-1.57.18-1.57,1.11,0,.81.3,1.01.92,1.18l1.3.34c.73.19,1.57.46,1.57,1.95s-.82,2.03-2.5,2.03c-.81,0-1.62-.19-2.04-.34Z"/>
    <path class="cls-2" d="m171.03,110.57l-3.33-3.76v3.76h-.73v-9.47h.73v5.63l3.15-3.19h.92l-3.25,3.22,3.44,3.81h-.93Z"/>
    <path class="cls-2" d="m176.33,105.79c0-4.21.87-4.83,3.75-4.83.65,0,1.38.08,1.83.14v.72c-.45-.05-1.18-.12-1.85-.12-2.41,0-2.93.41-2.93,4.07,0,4.19,1.04,4.21,3,4.21.64,0,1.37-.09,1.85-.18v.72c-.46.08-1.2.19-1.92.19-2.53,0-3.72-.37-3.72-4.91Z"/>
    <path class="cls-2" d="m182.98,107.05c0-2.92.85-3.65,2.97-3.65s2.95.72,2.95,3.65-.87,3.65-2.95,3.65-2.97-.72-2.97-3.65Zm5.17,0c0-2.46-.54-2.95-2.19-2.95s-2.22.49-2.22,2.95.54,2.95,2.22,2.95,2.19-.47,2.19-2.95Z"/>
    <path class="cls-2" d="m200.51,105.2v5.37h-.73v-5.23c0-.87-.32-1.23-1.16-1.23s-1.78.23-2.62.43c.04.2.07.42.07.66v5.37h-.73v-5.23c0-.87-.32-1.23-1.16-1.23s-1.85.23-2.56.41v6.06h-.73v-7.03h.61l.11.55c.7-.26,1.89-.69,2.73-.69.77,0,1.27.26,1.53.76.93-.37,2.1-.76,2.92-.76,1.19,0,1.73.61,1.73,1.8Z"/>
    <path class="cls-2" d="m208.3,107.23c0,3-1.07,3.48-2.64,3.48-.93,0-1.72-.26-2.06-.42v2.72h-.73v-9.47h.53l.15.42c.53-.24,1.46-.55,2.29-.55,1.88,0,2.46.78,2.46,3.83Zm-4.69-2.87v5.27c.38.16,1.19.37,1.99.37,1.23,0,1.95-.23,1.95-2.77s-.38-3.12-1.88-3.12c-.69,0-1.62.14-2.06.26Z"/>
    <path class="cls-2" d="m214.89,105.33v5.23h-.55l-.15-.43c-.92.34-1.66.57-2.41.57-1.51,0-1.99-.54-1.99-1.87s.61-1.87,1.96-1.97l2.41-.18v-1.42c0-.74-.16-1.16-1.72-1.16-.89,0-1.77.11-2.22.19v-.69c.45-.08,1.34-.2,2.24-.2,1.88,0,2.42.49,2.42,1.93Zm-3.06,4.71c.65,0,1.41-.14,2.33-.32v-2.41l-2.41.18c-1.05.08-1.2.45-1.2,1.35,0,.97.28,1.2,1.28,1.2Z"/>
    <path class="cls-2" d="m217.25,103.54h.61l.11.55c.7-.26,1.89-.69,2.79-.69,1.24,0,1.79.61,1.79,1.8v5.37h-.73v-5.23c0-.87-.32-1.23-1.22-1.23s-1.91.23-2.61.41v6.06h-.73v-7.03Z"/>
    <path class="cls-2" d="m229.82,103.54l-3.61,9.47h-.74l1.03-2.58-2.69-6.88h.77l2.29,6.09,2.2-6.09h.76Z"/>
  </g>
  <path class="cls-4" d="m231.67,61.89c.19.52.7,10.89-10.37,9.39-7.66-4.66-25.39-19.7-39.94-19.16,6.78,10.81,12.56,24.56,13.89,40.13,1.79-5.32,9.18-21.54,25.86-20.85,7.83,5.07,26.39,16.77,33.03,16.7-8.99-6.93-17.29-15.36-22.48-26.21Z"/>
</svg>